<svg width="18" height="28" viewBox="0 0 18 28" fill="none" xmlns="http://www.w3.org/2000/svg">
<path d="M13.003 18C12.9955 17.1563 12.7702 16.3289 12.349 15.5978C11.9279 14.8667 11.3251 14.2567 10.599 13.827L18 1L16.27 0L8.693 13.126C7.7631 12.9184 6.79597 12.9471 5.88006 13.2097C4.96415 13.4723 4.12866 13.9602 3.45 14.629C-0.294 18.24 -0.00399954 26.682 0.0100005 27.04C0.0203376 27.2982 0.130241 27.5424 0.316668 27.7214C0.503096 27.9004 0.751571 28.0002 1.01 28H16.001C16.2109 28 16.4154 27.934 16.5857 27.8112C16.756 27.6885 16.8833 27.5153 16.9497 27.3162C17.0161 27.1171 17.0181 26.9022 16.9555 26.7018C16.8929 26.5015 16.7689 26.3259 16.601 26.2C13.061 23.544 13.003 18.054 13.003 18ZM7.93 14.997C8.73037 15.0058 9.49654 15.3228 10.0691 15.8822C10.6417 16.4415 10.9765 17.2001 11.004 18C11.004 18.038 11.006 18.208 11.021 18.469L5.121 15.845C5.50964 15.5245 5.95812 15.2845 6.44035 15.1389C6.92258 14.9934 7.42895 14.9451 7.93 14.997ZM11.45 26C10.6507 25.1861 10.1412 24.132 10 23H8C8.07162 24.0643 8.40406 25.0946 8.968 26H6.745C6.33358 24.7023 6.08337 23.3588 6 22H4C4.0641 23.3548 4.2873 24.6973 4.665 26H2C2.031 24.164 2.29 20.108 3.803 17.447L11.336 20.797C11.6971 22.6766 12.4688 24.4532 13.596 26H11.45Z" fill="white"/>
</svg>
